<?xml version="1.0" encoding="utf-8"?>
<!-- Generator: Adobe Illustrator 23.0.1, SVG Export Plug-In . SVG Version: 6.00 Build 0)  -->
<svg version="1.1" id="Layer_1" xmlns="http://www.w3.org/2000/svg" xmlns:xlink="http://www.w3.org/1999/xlink" x="0px" y="0px"
	 viewBox="0 0 1300 900" style="enable-background:new 0 0 1300 900;" xml:space="preserve">
<g>
	<g id="Layer_1-2">
		<path d="M1293.41,425.19l-200-350C1084.51,59.61,1067.94,50,1050,50h-50c0-27.61-22.39-50-50-50s-50,22.39-50,50v100
			c0,27.61,22.39,50,50,50s50-22.39,50-50h21l142.86,250H1100c-27.61,0-50,22.39-50,50s22.39,50,50,50h150c27.61,0,50-22.39,50-50
			C1300,441.3,1297.73,432.75,1293.41,425.19z"/>
		<path d="M700,150L700,150c0,27.61,22.39,50,50,50s50-22.39,50-50V50c0-27.61-22.39-50-50-50s-50,22.39-50,50H250
			c-17.94,0-34.51,9.61-43.41,25.19l-200,350c-13.7,23.97-5.37,54.52,18.6,68.22C32.75,497.73,41.3,500,50,500h150
			c27.61,0,50-22.39,50-50s-22.39-50-50-50h-63.84L279,150H700z"/>
		<path d="M1000,390v80c-0.02,58.02-35.81,110.03-90,130.77V850c0,27.61-22.39,50-50,50H440c-27.61,0-50-22.39-50-50V600.77
			c-33.61-12.94-60.98-38.27-76.48-70.77c-8.93-18.74-13.55-39.24-13.52-60V270c0-11.05,8.95-20,20-20s20,8.95,20,20v200
			c-0.01,6.74,0.66,13.47,2,20.08c11.11-10.9,23.95-19.87,38-26.56V270c0-11.05,8.95-20,20-20s20,8.95,20,20v181.43
			c13.27-1.91,26.73-1.91,40,0V270c0-11.05,8.95-20,20-20s20,8.95,20,20v193.52c14.05,6.69,26.89,15.66,38,26.56
			c1.34-6.61,2.01-13.34,2-20.08V270c0-11.05,8.95-20,20-20s20,8.95,20,20v200c-0.02,58.02-35.81,110.03-90,130.77V800h320V600.77
			c-33.61-12.94-60.98-38.27-76.48-70.77c-8.93-18.74-13.55-39.24-13.52-60v-80c0-77.2,62.8-140,140-140S1000,312.8,1000,390z"/>
	</g>
</g>
</svg>
