<svg xmlns="http://www.w3.org/2000/svg" viewBox="0 0 1300 900"><defs><style>.cls-1{fill:#fff;}</style></defs><g id="Layer_2" data-name="Layer 2"><g id="Layer_1-2" data-name="Layer 1"><path class="cls-1" d="M1293.41,425.19l-200-350A50,50,0,0,0,1050,50h-50a50,50,0,0,0-100,0V150a50,50,0,0,0,100,0h21l142.86,250H1100a50,50,0,0,0,0,100h150a50,50,0,0,0,43.41-74.81Z"/><path class="cls-1" d="M700,150h0a50,50,0,0,0,100,0V50a50,50,0,0,0-100,0H250a50,50,0,0,0-43.41,25.19l-200,350A50,50,0,0,0,50,500H200a50,50,0,0,0,0-100H136.16L279,150Z"/><path class="cls-1" d="M860,250c-77.2,0-140,62.8-140,140v80a139.09,139.09,0,0,0,13.52,60A140.78,140.78,0,0,0,810,600.77V800H490V600.77A140.06,140.06,0,0,0,580,470V270a20,20,0,0,0-40,0V470a100,100,0,0,1-2,20.08,140.46,140.46,0,0,0-38-26.56V270a20,20,0,0,0-40,0V451.43a140.58,140.58,0,0,0-40,0V270a20,20,0,0,0-40,0V463.52a140.46,140.46,0,0,0-38,26.56A100,100,0,0,1,340,470V270a20,20,0,0,0-40,0V470a139.09,139.09,0,0,0,13.52,60A140.78,140.78,0,0,0,390,600.77V850a50,50,0,0,0,50,50H860a50,50,0,0,0,50-50V600.77A140.06,140.06,0,0,0,1000,470V390C1000,312.8,937.2,250,860,250ZM960,470a100,100,0,0,1-2,20.08,139.78,139.78,0,0,0-195.94,0A100,100,0,0,1,760,470V390a100,100,0,0,1,200,0Z"/></g></g></svg>